<svg xmlns="http://www.w3.org/2000/svg" viewBox="0 0 521.62 119.58"><defs><style>.cls-1,.cls-2{fill:#fff;}.cls-1,.cls-3{stroke:#fff;stroke-miterlimit:10;}.cls-1{stroke-width:0.5px;}.cls-2{font-size:42px;font-family:Helvetica-Light, Helvetica;font-weight:300;}.cls-3,.cls-4{fill:none;}</style></defs><g id="Layer_2" data-name="Layer 2"><g id="Layer_1-2" data-name="Layer 1"><rect class="cls-1" x="97.34" y="9" width="15.43" height="61.71"/><polygon class="cls-1" points="182.19 70.71 166.76 70.71 182.19 24.43 189.91 24.43 197.62 24.43 182.19 70.71"/><polygon class="cls-1" points="213.05 70.71 228.48 70.71 213.05 24.43 197.62 24.43 213.05 70.71"/><rect class="cls-1" x="236.19" y="9" width="15.43" height="61.71"/><rect class="cls-1" x="305.62" y="9" width="15.43" height="61.71"/><rect class="cls-1" x="359.62" y="9" width="30.86" height="15.43"/><rect class="cls-1" x="359.62" y="55.29" width="30.86" height="15.43"/><polygon class="cls-1" points="467.62 9 467.62 70.71 513.91 70.71 513.91 55.29 483.05 55.29 483.05 9 467.62 9"/><rect class="cls-1" x="112.76" y="39.86" width="30.86" height="15.43"/><rect class="cls-1" x="112.76" y="9" width="23.14" height="15.43"/><rect class="cls-1" x="182.19" y="39.86" width="30.86" height="15.43"/><path class="cls-1" d="M251.62,9h15.43s30.86,0,30.86,30.86c0,0,0,30.85-30.86,30.85H251.62V55.29h15.43s15.43,0,15.43-15.43c0,0,0-15.43-15.43-15.43H251.62Z"/><path class="cls-1" d="M375.05,70.71H359.62s-30.86,0-30.86-30.85c0,0,0-30.86,30.86-30.86h15.43V24.43H359.62s-15.43,0-15.43,15.43c0,0,0,15.43,15.43,15.43h15.43Z"/><polygon class="cls-1" points="413.62 70.71 398.19 70.71 413.62 24.43 429.05 24.43 413.62 70.71"/><polygon class="cls-1" points="444.48 70.71 459.91 70.71 444.48 24.43 429.05 24.43 444.48 70.71"/><rect class="cls-1" x="413.62" y="39.86" width="30.86" height="15.43"/><polygon class="cls-1" points="182.19 24.43 213.05 24.43 207.91 9 187.34 9 182.19 24.43"/><polygon class="cls-1" points="413.62 24.43 444.48 24.43 439.34 9 418.76 9 413.62 24.43"/><polygon class="cls-1" points="143.62 70.71 159.05 70.71 148.76 39.86 133.34 39.86 143.62 70.71"/><path class="cls-1" d="M128.19,9h10.29s20.57,0,20.57,23.14c0,0,0,23.15-20.57,23.15H128.19V39.86h10.29s5.14,0,5.14-7.72c0,0,0-7.71-5.14-7.71H128.19Z"/><text class="cls-2" transform="translate(95.52 104.67)">s e m i c o n d u c t o r</text><path class="cls-3" d="M8.1,97.22l3.24-.15L12,95.33l2.13,3.11,1.17-3.55L17.4,98l1.14-3.55,2.19,3.1.59-1.78,1.53-.2s6.44,3,6.62,5.9A8.63,8.63,0,0,0,35,107.93"/><path class="cls-3" d="M1.73,57.43s8.13-.5,12.67-2.08l1.49-.81V52.68L19,54.83l-.16-3.74,3.07,2.17-.19-3.72,3.15,2.12-.09-1.87,1.36-.73s10.71-4.73,13.15-9.77,8.56-1.93,8.56-1.93,4.83,2.88,1,9.59c0,0-2.63,3.82-5.41,4.5l-1.26.9.32,1.84-3.4-1.7.66,3.67L36.41,54.4,37,58.09,33.7,56.35l.24,1.84-1.38,1s-7.94,5.2-14.65,6.62l-1.48.44-.31,1.85-2.64-2.73L12.9,69l-2.56-2.75L9.73,70,7.14,67.24l-.37,1.82-1.63.48L0,69.76"/><polyline class="cls-3" points="38.63 40.83 41.13 43.71 43.99 41.22 38.11 46.33"/><polyline class="cls-3" points="45.98 49.61 43.48 46.73 40.62 49.21 46.5 44.1"/><path class="cls-3" d="M.52,63.59S18.82,62.3,32.74,52L30.27,47"/><path class="cls-3" d="M3.43,48.21,5.3,48l1.61-.53.32-1.83L9.9,48.3l.5-3.71L13,47.26l.48-3.69,2.72,2.64.25-1.85L18,43.88S30.8,36.32,33.58,33.1s8.84-5.74,10.91-5.47l1.56.66,1.45-1.16.24,3.76,2.83-2.46.22,3.75,2.79-2.47.3,3.79,1.41-1.23,1.43.6s7.53,6.08.22,18.54l-1.2,1.21.54,1.77L52.7,53.22l1.23,3.54-3.56-1.19,1.25,3.51L48,58l.61,1.77-1.09,1.1S40.62,74,43.58,83.91A28.09,28.09,0,0,0,54.24,98.72"/><path class="cls-3" d="M5.44,42s10.59-2,14.45-5.86L21.21,35l-.33-1.82,3.43,1.56-.83-3.65,3.41,1.59L26,29.08l3.47,1.53-.41-1.83,1.21-1S41.67,18,51.78,23.16,65.5,33.9,65.54,44.46L64.84,46,66,47.49l-3.76.16,2.39,2.88-3.75.13,2.4,2.85-3.79.22,1.2,1.43L60,56.57s-3.55,4.33-7,5.33-7.59,12.46-5.47,16.89l.88,1.45,1.86-.1-2,3.2L52,83l-2,3.17,3.71-.38-2,3.25,1.86-.17.81,1.32L58,94.83"/><path class="cls-3" d="M1.49,83.94s12.58-3.25,15.85-3l1.68.24,1.1-1.5,1.2,3.58,2.1-3.1,1.18,3.57,2.07-3.1,1.26,3.58L29,82.61l1.53.22S39,86.68,40.3,91.07s9.25,11.83,9.25,11.83"/><path class="cls-3" d="M2.92,89.18,7,89l2-.33.56-1.77,2.3,3,1-3.62,2.26,3,1-3.61,2.35,3,.49-1.8,1.52-.29S28.88,86,33,92l1.14,1.27,1.8-.44L34.57,96.3l3.6-1-1.39,3.49,3.58-1.06L39,101.26l1.8-.52,1,1.15,2.43,3.57"/><path class="cls-3" d="M40.48,106.86S29,92.59,26.1,92.28l1.13-4.69"/><path class="cls-3" d="M.62,75.57s26.9-3.9,37.59-12.81S55,47.86,55.23,43s-6.14-8.83-6.14-8.83-7.86-3.93-13.09,3S10.83,52,8.79,52.2L2.18,53"/><polygon class="cls-3" points="25.25 73.21 37.27 83.35 40.81 66.96 25.25 73.21"/><line class="cls-3" x1="28.47" y1="74.73" x2="29.92" y2="73.01"/><line class="cls-3" x1="35.34" y1="80.52" x2="36.78" y2="78.81"/><line class="cls-3" x1="35.2" y1="78.94" x2="36.92" y2="80.39"/><path class="cls-3" d="M.3,79.59s22.09-2.14,27.49-4.21"/><line class="cls-3" x1="34.99" y1="81.43" x2="33.19" y2="84.24"/><line class="cls-3" x1="40.81" y1="66.96" x2="46.93" y2="61.42"/><path class="cls-3" d="M11,28.4l9.42-7.06,1.37-1-.26-1.84,3.36,1.71-.67-3.68,3.33,1.73-.69-3.66,3.41,1.67-.33-1.84,1.24-.91s10.68-6.83,20.93-1.91l1.58.61L55.08,11l.39,3.75,2.72-2.56.36,3.74,2.7-2.58.45,3.77,1.36-1.28,1.45.55s15,11.82,12,28.74L76,46.75l1.3,1.32-3.71.63,2.73,2.56-3.71.59,2.74,2.54-3.74.68L73,56.35l-.46,1.48s-5.38,9.9-12.21,14.54S63.67,86.8,63.67,86.8"/><path class="cls-3" d="M61.55,90.51s-13.9-14.12-9.3-18.91l1-1.14-.69-1.74,3.67,1-1.39-3.45,3.61,1L57.11,63.8l3.63,1-.61-1.75,1.14-1.25s13.2-14.44,9.48-23.45l-.55-1.44-1.86-.17,2.52-2.84-3.72-.31,2.56-2.75L66,30.52l2.55-2.78-1.85-.24-.6-1.59s-9.84-9.56-20.26-9.34L44.32,17,44,18.83l-2.62-2.75-.62,3.68L38.23,17l-.65,3.68L35,17.89l-.4,1.82L33,20.17S9.6,36.38,7.87,34.81"/><path class="cls-3" d="M19.39,14.07c9.22-8.95,17.84-9.61,17.84-9.61l1.7,0L39.8,2.8l1.72,3.35,1.61-3.38,1.7,3.36,1.58-3.38L48.19,6.1,49,4.41h1.54S77.9,8.32,82.21,34.25"/><path class="cls-4" d="M20.34,105.66S46,118.62,65,84.52,82.28,31,82.28,31,82.14,13.19,59.35,3.29,22.93,9,22.93,9,6.12,29.9,1.73,55.4,3.8,91.48,3.8,91.48,8.23,100.44,20.34,105.66Z"/></g></g></svg>